<svg width="47" height="47" viewBox="0 0 47 47" fill="none" xmlns="http://www.w3.org/2000/svg">
<path d="M23.349 36.1852C30.5041 36.1852 36.3045 30.3849 36.3045 23.2298C36.3045 16.0746 30.5041 10.2743 23.349 10.2743C16.1939 10.2743 10.3936 16.0746 10.3936 23.2298C10.3936 30.3849 16.1939 36.1852 23.349 36.1852Z" stroke="#707070" stroke-width="2" stroke-linecap="round" stroke-linejoin="round"/>
<path d="M36.3045 23.9522C35.4707 24.2359 29.6287 26.1124 23.8016 22.6566C17.89 19.1508 16.779 12.9951 16.6406 12.1439" stroke="#707070" stroke-width="2" stroke-linecap="round" stroke-linejoin="round"/>
<path d="M7.21035 21.3097H5.00309C4.20365 21.3097 3.55566 21.9577 3.55566 22.7571V29.4907C3.55566 30.2897 4.20365 30.9377 5.00309 30.9377H7.24342" stroke="#707070" stroke-width="2" stroke-linecap="round" stroke-linejoin="round"/>
<path d="M39.7354 30.9377H41.9757C42.7751 30.9377 43.4231 30.2897 43.4231 29.4907V22.7571C43.4231 21.9577 42.7751 21.3097 41.9757 21.3097H39.7684" stroke="#707070" stroke-width="2" stroke-linecap="round" stroke-linejoin="round"/>
<path d="M39.7352 27.2901V17.8113C39.7352 9.43484 32.8819 2.58154 24.5055 2.58154H22.4275C14.0511 2.58154 7.19775 9.43484 7.19775 17.8113C7.20167 18.9776 7.20602 20.1434 7.20994 21.3097C7.22082 24.5192 7.23213 27.7287 7.24301 30.9378" stroke="#707070" stroke-width="2" stroke-linecap="round" stroke-linejoin="round"/>
<path d="M28.6523 42.9476C29.6211 42.9336 32.9311 42.767 35.8272 40.2568C39.7182 36.8846 39.6682 32.0514 39.6499 31.373C39.6786 30.0117 39.7069 28.6509 39.7356 27.2896" stroke="#707070" stroke-width="2" stroke-linecap="round" stroke-linejoin="round"/>
<path d="M27.26 41.1812H22.4229C21.6541 41.1812 21.0308 41.8044 21.0308 42.5733V43.2317C21.0308 44.0006 21.6541 44.6239 22.4229 44.6239H27.26C28.0289 44.6239 28.6522 44.0006 28.6522 43.2317V42.5733C28.6522 41.8044 28.0289 41.1812 27.26 41.1812Z" stroke="#707070" stroke-width="2" stroke-linecap="round" stroke-linejoin="round"/>
<path d="M27.7275 28.5725C26.8911 30.1235 25.2513 31.1776 23.3656 31.1776C21.48 31.1776 19.7967 30.0953 18.9707 28.5103" stroke="#707070" stroke-width="2" stroke-linecap="round" stroke-linejoin="round"/>
</svg>
