<svg width="96" height="18" viewBox="0 0 96 18" fill="none" xmlns="http://www.w3.org/2000/svg">
<path d="M0 0H18V18H0V0ZM19.5 0H37.5V18H19.5V0ZM39 0H57V18H39V0ZM58.5 0H76.5V18H58.5V0ZM78 0H96V18H78V0Z" fill="#00B67A"/>
<path d="M9.00019 12.1312L11.7377 11.4375L12.8814 14.9625L9.00019 12.1312ZM15.3002 7.57498H10.4814L9.00019 3.03748L7.51894 7.57498H2.7002L6.6002 10.3875L5.11895 14.925L9.01894 12.1125L11.4189 10.3875L15.3002 7.57498ZM28.5002 12.1312L31.2377 11.4375L32.3814 14.9625L28.5002 12.1312ZM34.8002 7.57498H29.9814L28.5002 3.03748L27.0189 7.57498H22.2002L26.1002 10.3875L24.6189 14.925L28.5189 12.1125L30.9189 10.3875L34.8002 7.57498ZM48.0002 12.1312L50.7377 11.4375L51.8814 14.9625L48.0002 12.1312ZM54.3002 7.57498H49.4814L48.0002 3.03748L46.5189 7.57498H41.7002L45.6002 10.3875L44.1189 14.925L48.0189 12.1125L50.4189 10.3875L54.3002 7.57498ZM67.5002 12.1312L70.2377 11.4375L71.3814 14.9625L67.5002 12.1312ZM73.8002 7.57498H68.9814L67.5002 3.03748L66.0189 7.57498H61.2002L65.1002 10.3875L63.6189 14.925L67.5189 12.1125L69.9189 10.3875L73.8002 7.57498ZM87.0002 12.1312L89.7377 11.4375L90.8814 14.9625L87.0002 12.1312ZM93.3002 7.57498H88.4814L87.0002 3.03748L85.5189 7.57498H80.7002L84.6002 10.3875L83.1189 14.925L87.0189 12.1125L89.4189 10.3875L93.3002 7.57498Z" fill="white"/>
</svg>
